<?xml version="1.0" encoding="UTF-8"?>
<!-- Generator: Adobe Illustrator 18.1.1, SVG Export Plug-In . SVG Version: 6.00 Build 0)  -->
<!DOCTYPE svg PUBLIC "-//W3C//DTD SVG 1.1//EN" "http://www.w3.org/Graphics/SVG/1.1/DTD/svg11.dtd">
<svg version="1.1" id="Ebene_1" xmlns="http://www.w3.org/2000/svg" xmlns:xlink="http://www.w3.org/1999/xlink" x="0px" y="0px" viewBox="0 0 145.999 179" enable-background="new 0 0 145.999 179" xml:space="preserve">
<rect x="0" fill="#003553" width="145.999" height="179"/>
<g>
	<g>
		<g>
			<path fill="#FFFFFF" d="M60.493,64.201c0,0.814-0.338,1.39-0.338,2.205h-0.036c-0.474,1.592-0.645,3.255-1.051,4.746     c-0.27,0.544-0.476,1.221-0.679,1.798c-0.204,0-0.035,0.272-0.204,0.306c-0.135,0.475-0.339,0.915-0.44,1.423h-0.034     c-0.272,0.612-0.475,1.256-0.61,1.9c-0.204,0-0.068,0.271-0.204,0.373c-0.136,0.439-0.375,0.882-0.44,1.322h-0.103     c-0.135,0.577-0.475,1.187-0.542,1.764c-0.203,0.27-0.306,0.575-0.374,0.949h-0.034c-0.169,0.407-0.203,0.914-0.475,1.254     c-0.235,0.882-0.441,1.695-0.71,2.543h-0.035c-0.169,0.476-0.271,0.985-0.475,1.391c-0.069,0.441-0.237,0.746-0.34,1.153     L53.2,88.653h-0.032c-0.24,0.406-0.477,0.847-0.918,1.017c-0.475,0.135-0.745-0.137-0.982-0.442     c-0.375-1.083,0-2.306,0.169-3.425c0.1-0.406,0.271-0.814,0.338-1.254c0.068-0.136,0.205-0.373,0.205-0.576     c1.151-4.239,2.442-8.513,4.442-12.244c0.813-1.832,1.56-3.865,2.51-5.663c0.101-0.476,0.439-0.949,0.576-1.494     C59.78,64.269,60.323,63.319,60.493,64.201z"/>
		</g>
		<g>
			<path fill="#FFFFFF" d="M39.668,64.608c0.34,0.644,0.578,1.289,1.018,1.933c0.035,0.066-0.034,0.136,0.069,0.203     c0.1-0.033,0.1,0.103,0.1,0.204c1.322,2.374,2.476,4.986,3.255,7.597c0.272,0.847,0.477,1.864,0.781,2.678     c0.306,0.983,0.678,1.935,1.085,2.883c0.815,2.137,1.831,4.274,2.442,6.444c0.306,0.203,0.237,0.679,0.509,0.984     c0.169,0.372,0.169,0.914,0.169,1.425c-0.034,0.373-0.338,0.507-0.575,0.677c-1.288,0.068-1.459-1.73-2.204-2.509     c-0.101-0.408-0.441-0.78-0.578-1.153c-1.66-3.561-2.542-7.089-3.867-10.852c-1.116-3.087-2.035-6.513-2.644-9.903     c-0.135-0.306-0.034-0.714-0.067-1.053C39.533,63.862,39.634,64.37,39.668,64.608z"/>
		</g>
		<g>
			<path fill="#FFFFFF" d="M80.942,67.59c-0.103,0.17-0.44,0.17-0.644,0.273c-0.984,0.847-2.172,1.968-3.019,2.882     c-0.476,0.375-1.12,0.849-1.459,1.357c-0.372,0.339-0.745,0.542-0.983,0.881c-0.237,0.205-0.678,0.611-0.915,0.814     c-2.136,2.035-4.782,4.512-6.986,6.783l-0.068,0.203c-2.508,2.68-5.596,5.461-8.478,7.802c-0.847,0.984-2.035,1.765-3.154,2.578     c-0.237,0.101-0.475,0.067-0.747,0.067c-0.304-1.254,0.747-2.002,1.356-2.917c3.189-4.138,6.886-7.291,10.481-11.26     c1.525-1.358,3.052-2.544,4.78-3.899c0.477-0.171,0.679-0.544,1.053-0.883c1.966-1.762,4.612-3.628,7.121-4.612     c0.475-0.101,1.053-0.237,1.594-0.203L80.942,67.59z"/>
		</g>
		<g>
			<path fill="#FFFFFF" d="M27.764,80.105c4.002,2.036,8.581,3.122,12.516,5.461c2.17,1.051,3.492,2.578,5.426,4.035     c0.27,0.136,0.373,0.271,0.542,0.543c0.137,0.136,0.035,0.407,0.069,0.61c-0.169,0.034-0.034,0.237-0.169,0.306     c-0.307,0.306-0.85,0.509-1.426,0.405c-0.541-0.169-1.05-0.236-1.493-0.575c-1.288-0.477-2.338-1.221-3.492-1.865     c-2.848-1.492-5.936-3.052-8.309-5.292c-1.66-1.118-3.288-2.271-4.442-3.696v-0.204C27.357,79.699,27.46,80.072,27.764,80.105z"/>
		</g>
		<g>
			<path fill="#FFFFFF" d="M79.246,86.888c-0.237,0.408-0.882,0.341-1.254,0.68c-1.763,0.78-3.594,1.322-5.189,2.374     c-2.034,1.016-4.138,1.595-6.207,2.305c-2.033,0.543-4.068,0.914-6.103,1.39c-1.153,0-2.613,1.121-3.426-0.169     c0.035-0.236-0.169-0.236-0.102-0.475c0.443-0.779,1.323-0.779,1.934-1.188c2.373-0.779,5.087-1.525,7.494-2.373     c2.409-0.645,4.748-1.324,7.36-1.73c1.323-0.203,2.577-0.78,4.036-0.78l0.034-0.103L79.246,86.888z"/>
		</g>
		<g>
			<path fill="#FFFFFF" d="M45.028,94.283c0.066,0.305,0.101,0.608-0.103,0.849c-0.338,0.338-0.95,0.034-1.391,0.236     c-1.389-0.034-2.408,0.372-3.661,0.611c-5.665,1.085-10.922,3.865-17.196,3.562c-0.135-0.271,0.068-0.408,0.237-0.579     c1.425-0.575,2.679-1.151,4.139-1.695c0.914-0.304,1.932-0.711,2.779-1.084c0.407,0.033,0.71-0.339,1.154-0.306     c1.188-0.543,2.475-0.914,3.732-1.39c0.235,0.066,0.304-0.102,0.474-0.17c2.746-0.712,5.594-2.543,8.682-1.254     C44.35,93.5,44.791,93.671,45.028,94.283z"/>
		</g>
		<g>
			<path fill="#FFFFFF" d="M71.18,101.021l0.232,0.417c0.812,1.323,1.322,2.644,1.492,4.205c0.304,1.764,0.236,3.834,0.204,5.733     l-0.082,0.28l-0.087,1.483h-0.035l-0.17,1.663c-0.135,0.1-0.102,0.304-0.135,0.473c-0.068,1.085-0.38,1.798-0.509,2.951     c-0.276,0.78-0.475,1.866-0.712,2.679c-0.067,0.204-0.169,0.374-0.169,0.612c-0.103,0.102-0.069,0.338-0.135,0.475     c-0.137,0.439-0.238,0.982-0.409,1.39c0,0.169-0.1,0.304-0.135,0.406c-0.34,1.392-0.779,2.51-1.05,3.935     c-0.204,0.238-0.238,0.643-0.34,0.949c0.373-0.305,0.881-0.949,1.188-1.39c3.085-3.392,6.749-7.358,11.021-9.429     c0.916-0.338,1.764-0.711,2.849-0.745c0.271-0.138,0.644-0.035,0.95-0.068v0.034c1.357,0.102,2.782,1.052,3.154,2.374     c0.27,1.391,0.27,3.257-0.136,4.578l-0.101,0.578c-0.135,0.17-0.068,0.508-0.204,0.746c-0.203,0.542-0.237,1.052-0.441,1.559     c-0.337,1.155-0.812,2.103-1.018,3.358c-0.238,0.305-0.238,0.814-0.441,1.188l0.069,0.067c1.256-1.153,2.645-2.339,3.867-3.425     c0.27-0.339,0.712-0.542,1.016-0.883c0.884-0.677,1.628-1.356,2.882-1.323c0.069-0.101,0.204-0.067,0.307-0.067v0.034     c0.576,0,1.119,0.171,1.526,0.441c0.44,0.476,0.203,1.221,0.203,1.798c-0.236,0.982-0.575,1.729-0.95,2.609     c-0.101,0.307-0.372,0.579-0.372,0.951c-0.372,0.373-0.27,0.849-0.544,1.254c-0.066,0.645-0.507,1.155-0.405,1.899h-0.034     c-0.135,0.475-0.103,1.12,0.169,1.46c1.12,0.778,2.104-0.34,3.257-0.441c0.101,0.88-0.678,1.083-1.188,1.628     c-0.612,0.475-1.526,0.813-2.307,0.644c-1.188-0.103-2-0.883-2.441-1.968c-0.034-0.611-0.306-1.221-0.103-1.832     c0.204-2.033,1.29-3.493,2.035-5.153c0.034-0.306,0.442-0.611,0.169-0.95l-0.576,0.203c-2.169,1.391-3.764,2.883-5.495,4.612     c-0.338,0.068-0.338,0.441-0.645,0.612c-0.576,0.44-1.22,0.712-2.035,0.575c-0.713-0.237-1.254-0.746-1.423-1.46     c-0.137-0.541-0.137-1.254,0-1.795c0.135-0.137,0.066-0.406,0.169-0.612c1.017-3.526,2.748-6.444,2.748-10.41     c-0.137-0.306-0.137-0.578-0.51-0.68c-0.475-0.067-0.95-0.271-1.423-0.136c-2.747,0.576-4.579,2.375-6.614,4.104     c-1.763,1.932-3.629,3.46-5.223,5.528c-0.237,0.102-0.372,0.408-0.543,0.577c-1.627,1.865-3.018,3.969-4.543,5.832     c-0.306,0.273-0.747,0.339-1.154,0.238c-0.781-0.306-1.527-0.95-1.491-1.899c0.203-1.629,0.948-2.816,1.253-4.41h0.034     c0.882-3.153,1.832-6.408,2.476-9.7h0.034c0.27-1.49,0.644-2.778,0.778-4.372h0.034c0.441-3.291,0.815-7.192,0-10.414     c-0.407-2.137-1.966-3.935-4.001-4.545c-4.07-1.05-7.903,0.475-11.125,2.171c-1.966,1.119-4.17,2.477-5.73,3.935     c-0.068,0-0.103,0-0.135,0.069c-0.171,0.169-0.477,0.473-0.646,0.642c-0.373,0.306-0.745,0.509-0.985,0.883     c-0.133-0.033-0.101,0.136-0.169,0.171c-1.016,0.949-1.966,1.797-2.747,2.916c-2.238,2.339-3.934,4.816-5.866,7.496v0.101h-0.069     c-1.288,1.9-2.61,3.935-3.832,6.004h-0.101c-0.881,1.56-1.765,3.018-2.544,4.509c-0.509,1.085-1.019,1.865-1.458,2.849     c-0.171,0.441-0.409,0.713-0.475,1.154c-0.205,0-0.034,0.271-0.205,0.271c-0.712,2.068-1.491,3.9-2.102,5.969     c-0.103,0.338-0.306,0.678-0.271,1.12h-0.103c-0.201,0.813-0.407,1.662-0.61,2.407c-0.306,0.202-0.066,0.711-0.406,0.881     c-0.169,0.475-0.441,0.713-0.779,1.017c-0.375,0.204-0.613-0.134-0.85-0.338c-0.27-0.849-0.135-1.899-0.101-2.815     c1.797-7.63,4.611-15.024,8.613-21.332c1.765-2.916,3.664-5.359,5.732-7.902c0.71-0.95,1.526-1.594,2.136-2.477     c1.766-1.797,3.732-3.765,5.732-5.426c3.832-3.018,7.968-5.8,12.817-6.817c3.8-0.61,8.615-0.525,11.175,2.036     C70.378,100.047,70.782,100.565,71.18,101.021z"/>
		</g>
		<g>
			<path fill="#FFFFFF" d="M45.91,97.943c0.066,0.951,0,1.8-0.612,2.409c-1.322,0.815-2.61,1.29-3.799,2.272     c-2.475,1.798-4.917,3.766-7.189,5.732c-2.375,2.07-4.477,4.207-6.918,6.411c-0.813,1.018-2.17,2.068-2.849,3.086     c-0.646,0.781-1.288,1.629-1.966,2.443c-0.034,0.067-0.137,0.101-0.24,0.067c-0.1-0.814,0.646-1.221,0.781-1.934h0.034     c0.644-1.459,1.423-2.882,2.373-4.002c0.916-1.424,1.866-2.271,2.884-3.595c2.17-2.374,4.001-4.409,6.375-6.646     c2.509-2.07,5.358-4.071,8.071-5.97C43.603,97.639,45.094,97.063,45.91,97.943z"/>
		</g>
	</g>
	<g>
		<path fill="#FFFFFF" d="M45.169,155.037h-2.733l1.529-10.93c-0.038,0-0.057,0-0.076,0l-4.701,10.93h-2.676l-1.566-10.969    c-0.038,0-0.057,0-0.076,0l-1.529,10.969h-2.694l1.93-13.834h4.357l1.414,10.241c0.019,0,0.057,0,0.096,0l4.299-10.241h4.356    L45.169,155.037z"/>
		<path fill="#FFFFFF" d="M47.941,150.967c0-3.803,2.427-6.076,5.618-6.076c2.522,0,3.497,1.223,3.497,2.732    c0,1.491-0.898,2.313-2.102,2.811c-1.356,0.573-3.095,0.688-4.012,0.764c0.019,0.956,0.229,1.91,1.662,1.91    c1.032,0,1.586-0.593,1.873-1.413l2.293,0.554c-0.612,1.873-2.254,3.02-4.624,3.02C49.011,155.267,47.941,153.279,47.941,150.967z     M51.056,149.343c0.458-0.021,1.299-0.096,1.987-0.307c0.86-0.247,1.28-0.649,1.28-1.299c0-0.593-0.363-0.86-1.012-0.86    C52.107,146.877,51.247,147.832,51.056,149.343z"/>
		<path fill="#FFFFFF" d="M65.081,154.579c-0.554,0.324-1.72,0.688-2.828,0.688c-2.216,0-3.248-1.109-2.923-3.345l0.688-4.795    h-1.491l0.268-2.045h1.49l0.42-2.867l2.943-0.438l-0.478,3.306h2.637l-0.268,2.045h-2.637l-0.65,4.527    c-0.134,0.88,0.039,1.452,0.955,1.452c0.592,0,1.128-0.191,1.567-0.42L65.081,154.579z"/>
		<path fill="#FFFFFF" d="M66.535,150.967c0-3.803,2.427-6.076,5.617-6.076c2.523,0,3.497,1.223,3.497,2.732    c0,1.491-0.898,2.313-2.102,2.811c-1.357,0.573-3.096,0.688-4.013,0.764c0.019,0.956,0.229,1.91,1.662,1.91    c1.032,0,1.586-0.593,1.873-1.413l2.293,0.554c-0.612,1.873-2.255,3.02-4.625,3.02C67.604,155.267,66.535,153.279,66.535,150.967z     M69.649,149.343c0.459-0.021,1.299-0.096,1.987-0.307c0.86-0.247,1.28-0.649,1.28-1.299c0-0.593-0.363-0.86-1.013-0.86    C70.7,146.877,69.84,147.832,69.649,149.343z"/>
		<path fill="#FFFFFF" d="M77.16,151.024c0-3.382,1.911-6.134,5.771-6.134c3.172,0,4.242,1.834,4.242,4.281    c0,3.189-1.777,6.095-5.676,6.095C78.478,155.267,77.16,153.681,77.16,151.024z M84.172,149.074c0-1.527-0.573-2.12-1.586-2.12    c-2.025,0-2.503,2.466-2.503,4.09c0,1.586,0.592,2.216,1.643,2.216C83.752,153.26,84.172,150.661,84.172,149.074z"/>
		<path fill="#FFFFFF" d="M95.37,154.579c-0.554,0.324-1.719,0.688-2.828,0.688c-2.217,0-3.249-1.109-2.923-3.345l0.688-4.795    h-1.491l0.268-2.045h1.49l0.421-2.867l2.942-0.438l-0.477,3.306h2.637l-0.268,2.045h-2.637l-0.649,4.527    c-0.134,0.88,0.038,1.452,0.955,1.452c0.592,0,1.128-0.191,1.567-0.42L95.37,154.579z"/>
		<path fill="#FFFFFF" d="M96.823,150.967c0-3.803,2.426-6.076,5.617-6.076c2.523,0,3.497,1.223,3.497,2.732    c0,1.491-0.898,2.313-2.102,2.811c-1.356,0.573-3.096,0.688-4.012,0.764c0.019,0.956,0.229,1.91,1.662,1.91    c1.032,0,1.586-0.593,1.873-1.413l2.293,0.554c-0.611,1.873-2.254,3.02-4.624,3.02C97.893,155.267,96.823,153.279,96.823,150.967z     M99.938,149.343c0.459-0.021,1.299-0.096,1.987-0.307c0.86-0.247,1.28-0.649,1.28-1.299c0-0.593-0.363-0.86-1.013-0.86    C100.988,146.877,100.128,147.832,99.938,149.343z"/>
		<path fill="#FFFFFF" d="M116.046,147.776l-2.389,0.553c-0.114-0.84-0.535-1.49-1.585-1.49c-0.994,0-1.396,0.383-1.396,0.918    c0,0.783,0.994,0.937,2.083,1.203c1.357,0.325,2.866,0.822,2.866,2.829c0,2.312-1.987,3.478-4.624,3.478    c-2.752,0-3.937-1.224-4.089-2.867l2.445-0.649c0.115,0.764,0.46,1.567,1.854,1.567c0.918,0,1.586-0.287,1.586-1.014    c0-0.821-1.032-0.974-2.16-1.279c-1.318-0.344-2.752-0.88-2.752-2.848c0-2.312,2.121-3.286,4.318-3.286    C114.537,144.891,115.798,145.998,116.046,147.776z"/>
		<path fill="#FFFFFF" d="M124.015,154.579c-0.554,0.324-1.72,0.688-2.828,0.688c-2.217,0-3.248-1.109-2.924-3.345l0.688-4.795    h-1.49l0.268-2.045h1.491l0.42-2.867l2.942-0.438l-0.478,3.306h2.637l-0.267,2.045h-2.637l-0.649,4.527    c-0.134,0.88,0.038,1.452,0.955,1.452c0.592,0,1.127-0.191,1.567-0.42L124.015,154.579z"/>
	</g>
</g>
</svg>